<?xml version="1.0" encoding="utf-8"?>
<!-- Generator: Adobe Illustrator 17.0.2, SVG Export Plug-In . SVG Version: 6.00 Build 0)  -->
<!DOCTYPE svg PUBLIC "-//W3C//DTD SVG 1.1//EN" "http://www.w3.org/Graphics/SVG/1.1/DTD/svg11.dtd">
<svg version="1.1" id="Layer_1" xmlns="http://www.w3.org/2000/svg" xmlns:xlink="http://www.w3.org/1999/xlink" x="0px" y="0px"
	 width="792px" height="612px" viewBox="0 0 792 612" enable-background="new 0 0 792 612" xml:space="preserve">
<path fill="#FFFFFF" d="M244.372,327.627l128.001,128c12.496,12.497,32.757,12.497,45.254,0c12.497-12.497,12.497-32.758,0-45.255
	L344.255,337H523c17.673,0,32-14.327,32-32s-14.327-32-32-32H344.255l73.373-73.372c12.497-12.497,12.497-32.759,0-45.256
	C411.379,148.124,403.189,145,395,145s-16.379,3.124-22.627,9.372l-128.001,128C231.876,294.869,231.876,315.131,244.372,327.627z"
	/>
</svg>
