<?xml version="1.0" encoding="utf-8"?>
<!-- Generator: Adobe Illustrator 17.0.2, SVG Export Plug-In . SVG Version: 6.00 Build 0)  -->
<!DOCTYPE svg PUBLIC "-//W3C//DTD SVG 1.1//EN" "http://www.w3.org/Graphics/SVG/1.1/DTD/svg11.dtd">
<svg version="1.1" id="Layer_1" xmlns="http://www.w3.org/2000/svg" xmlns:xlink="http://www.w3.org/1999/xlink" x="0px" y="0px"
	 width="792px" height="612px" viewBox="0 0 792 612" enable-background="new 0 0 792 612" xml:space="preserve">
<path fill="#FFFFFF" d="M396,51c-141.385,0-256,114.615-256,256s114.615,256,256,256s256-114.615,256-256S537.385,51,396,51z
	 M396,532.261c-124.96,0-226.261-101.301-226.261-226.261S271.04,79.739,396,79.739S622.261,181.04,622.261,306
	S520.96,532.261,396,532.261z"/>
<path fill="#FFFFFF" d="M524.748,215.446H267.24c-1.572,0-2.852,1.28-2.852,2.859v177.39c0,1.58,1.28,2.859,2.852,2.859h257.508
	c1.576,0,2.863-1.28,2.863-2.859v-177.39C527.611,216.725,526.324,215.446,524.748,215.446z M481.202,238.335L396,300.818
	l-85.202-62.483H481.202z M504.722,375.665H287.278V249.476l107.028,78.488c1.014,0.74,2.377,0.74,3.391,0l107.028-78.488v126.189
	H504.722z"/>
</svg>
