<?xml version="1.0" encoding="utf-8"?>
<!-- Generator: Adobe Illustrator 17.0.2, SVG Export Plug-In . SVG Version: 6.00 Build 0)  -->
<!DOCTYPE svg PUBLIC "-//W3C//DTD SVG 1.1//EN" "http://www.w3.org/Graphics/SVG/1.1/DTD/svg11.dtd">
<svg version="1.1" id="Layer_1" xmlns="http://www.w3.org/2000/svg" xmlns:xlink="http://www.w3.org/1999/xlink" x="0px" y="0px"
	 width="792px" height="612px" viewBox="0 0 792 612" enable-background="new 0 0 792 612" xml:space="preserve">
<path fill="#FFFFFF" d="M396,51c-141.385,0-256,114.615-256,256s114.615,256,256,256s256-114.615,256-256S537.385,51,396,51z
	 M396,532.261c-124.96,0-226.261-101.301-226.261-226.261S271.04,79.739,396,79.739S622.261,181.04,622.261,306
	S520.96,532.261,396,532.261z"/>
<path fill="#FFFFFF" d="M357.218,223.459c0-1.696,0.236-5.359,0.707-10.966c0.507-5.618,2.627-11.496,6.431-17.668
	c3.769-6.148,9.882-11.673,18.387-16.561c8.469-4.865,20.707-7.315,36.679-7.315h44.995v49.035h-32.945
	c-3.263,0-6.302,1.225-9.046,3.64c-2.721,2.415-4.123,4.712-4.123,6.843v30.507h46.102c-0.483,5.972-1.013,11.779-1.625,17.385
	l-1.826,14.818c-0.73,5.006-1.472,9.647-2.203,13.922h-40.778v135.95h-60.755V307.088h-29.635v-46.114h29.635V223.459z"/>
</svg>
