<?xml version="1.0" encoding="utf-8"?>
<!-- Generator: Adobe Illustrator 17.0.2, SVG Export Plug-In . SVG Version: 6.00 Build 0)  -->
<!DOCTYPE svg PUBLIC "-//W3C//DTD SVG 1.1//EN" "http://www.w3.org/Graphics/SVG/1.1/DTD/svg11.dtd">
<svg version="1.1" id="Layer_1" xmlns="http://www.w3.org/2000/svg" xmlns:xlink="http://www.w3.org/1999/xlink" x="0px" y="0px"
	 width="792px" height="612px" viewBox="0 0 792 612" enable-background="new 0 0 792 612" xml:space="preserve">
<path fill="#FFFFFF" d="M396,51c-141.385,0-256,114.615-256,256s114.615,256,256,256s256-114.615,256-256S537.385,51,396,51z
	 M396,532.261c-124.96,0-226.261-101.301-226.261-226.261S271.04,79.739,396,79.739S622.261,181.04,622.261,306
	S520.96,532.261,396,532.261z"/>
<path fill="#FFFFFF" d="M398.457,172.786c-53.382,0-96.66,43.278-96.66,96.66c0,4.086,0.328,8.069,0.828,12.018
	c8.259,75.487,89.556,162.509,89.556,162.509c1.448,1.621,2.845,2.638,4.19,3.362l0.069,0.034l2.707,0.845l2.707-0.845l0.069-0.034
	c1.345-0.724,2.742-1.759,4.19-3.362c0,0,80.142-87.16,88.194-162.681c0.483-3.897,0.81-7.845,0.81-11.863
	C495.1,216.064,451.839,172.786,398.457,172.786z M398.457,331.622c-34.278,0-62.176-27.898-62.176-62.176
	s27.898-62.176,62.176-62.176s62.158,27.898,62.158,62.176S432.734,331.622,398.457,331.622z"/>
</svg>
