<?xml version="1.0" encoding="utf-8"?>
<!-- Generator: Adobe Illustrator 17.0.2, SVG Export Plug-In . SVG Version: 6.00 Build 0)  -->
<!DOCTYPE svg PUBLIC "-//W3C//DTD SVG 1.1//EN" "http://www.w3.org/Graphics/SVG/1.1/DTD/svg11.dtd">
<svg version="1.1" id="Layer_1" xmlns="http://www.w3.org/2000/svg" xmlns:xlink="http://www.w3.org/1999/xlink" x="0px" y="0px"
	 width="792px" height="612px" viewBox="0 0 792 612" enable-background="new 0 0 792 612" xml:space="preserve">
<path fill="#FFFFFF" d="M396,51c-141.385,0-256,114.615-256,256s114.615,256,256,256s256-114.615,256-256S537.385,51,396,51z
	 M396,532.261c-124.96,0-226.261-101.301-226.261-226.261S271.04,79.739,396,79.739S622.261,181.04,622.261,306
	S520.96,532.261,396,532.261z"/>
<path fill="#FFFFFF" d="M532.772,383.175c0.552,4.233-0.737,7.914-3.865,11.043l-36.719,36.442
	c-1.656,1.841-3.819,3.406-6.488,4.693c-2.669,1.288-5.291,2.117-7.867,2.485c-0.184,0-0.737,0.047-1.657,0.139
	c-0.919,0.092-2.116,0.138-3.588,0.138c-3.498,0-9.158-0.598-16.98-1.795c-7.822-1.196-17.393-4.142-28.712-8.835
	c-11.32-4.693-24.158-11.734-38.514-21.12c-14.356-9.386-29.633-22.271-45.83-38.652c-12.884-12.7-23.559-24.848-32.026-36.443
	c-8.467-11.596-15.277-22.317-20.43-32.164c-5.154-9.847-9.019-18.774-11.596-26.78c-2.577-8.006-4.325-14.909-5.246-20.706
	s-1.288-10.353-1.104-13.666c0.184-3.313,0.276-5.154,0.276-5.522c0.368-2.577,1.196-5.2,2.485-7.868s2.853-4.831,4.693-6.488
	l36.719-36.719c2.577-2.577,5.522-3.865,8.835-3.865c2.393,0,4.509,0.69,6.35,2.071c1.841,1.38,3.405,3.083,4.693,5.108
	l29.541,56.045c1.656,2.945,2.117,6.166,1.38,9.663c-0.736,3.497-2.301,6.442-4.693,8.835l-13.528,13.528
	c-0.368,0.368-0.69,0.966-0.966,1.795c-0.276,0.828-0.414,1.518-0.414,2.071c0.736,3.865,2.393,8.283,4.97,13.252
	c2.209,4.417,5.614,9.801,10.215,16.151c4.601,6.35,11.135,13.666,19.602,21.948c8.283,8.467,15.645,15.047,22.087,19.74
	c6.441,4.693,11.826,8.144,16.151,10.353s7.638,3.543,9.939,4.002l3.45,0.69c0.368,0,0.967-0.138,1.795-0.414
	c0.828-0.276,1.426-0.598,1.795-0.966l15.737-16.013c3.314-2.945,7.178-4.417,11.596-4.417c3.13,0,5.614,0.552,7.454,1.656h0.276
	l53.283,31.474C529.736,376.457,532.036,379.494,532.772,383.175z"/>
</svg>
