<?xml version="1.0" encoding="utf-8"?>
<!-- Generator: Adobe Illustrator 17.0.2, SVG Export Plug-In . SVG Version: 6.00 Build 0)  -->
<!DOCTYPE svg PUBLIC "-//W3C//DTD SVG 1.1//EN" "http://www.w3.org/Graphics/SVG/1.1/DTD/svg11.dtd">
<svg version="1.1" id="Layer_1" xmlns="http://www.w3.org/2000/svg" xmlns:xlink="http://www.w3.org/1999/xlink" x="0px" y="0px"
	 width="792px" height="612px" viewBox="0 0 792 612" enable-background="new 0 0 792 612" xml:space="preserve">
<path fill="#FFFFFF" d="M396,51c-141.385,0-256,114.615-256,256s114.615,256,256,256s256-114.615,256-256S537.385,51,396,51z
	 M396,532.261c-124.96,0-226.261-101.301-226.261-226.261S271.04,79.739,396,79.739S622.261,181.04,622.261,306
	S520.96,532.261,396,532.261z"/>
<path fill="#FFFFFF" d="M339.446,316.296h10.507v10.5h10.5v10.5h-52.491v-10.5h10.5v-20.999h21.007v10.5
	C339.468,316.296,339.446,316.296,339.446,316.296z M475.919,410.763h10.485v-10.5h-10.485V410.763z M349.946,316.296h10.5v-10.5
	h-10.5V316.296z M496.889,410.763h10.5v-10.5h-10.5V410.763z M370.952,421.263h20.984v-10.5h-20.984V421.263z M465.412,421.263
	v-10.5h-10.5v10.5H465.412z M423.428,421.263h10.5v-20.999h-10.5V421.263z M339.446,284.805v10.5h31.491v-10.5H339.446z
	 M328.961,295.297v-10.5h-21.007v20.999h10.5v-10.5C318.454,295.297,328.961,295.297,328.961,295.297z M360.445,274.305H286.97
	V200.83h73.475V274.305z M349.946,211.33h-52.491v52.476h52.491V211.33z M307.955,400.263h31.484v-31.491h-31.484V400.263z
	 M412.921,389.764v10.5h10.514v-10.5H412.921z M339.446,221.829h-31.484v31.477h31.484V221.829z M507.388,200.83v73.475h-73.475
	V200.83H507.388z M496.889,211.33h-52.476v52.476h52.476V211.33z M286.955,347.773h73.482v73.475h-73.482V347.773z M297.462,410.763
	h52.491v-52.491h-52.491V410.763z M297.462,284.805h-10.507v52.491h10.507V284.805z M433.913,337.288v10.485h10.5v-10.485H433.913z
	 M402.422,379.272v-10.5h-10.5v10.5h-20.984v21.007h20.984v10.5h10.5v-21.007h10.5v-10.5H402.422L402.422,379.272z M370.952,242.821
	h20.984v-10.514h-20.984V242.821z M454.912,326.796h21.014v10.5h10.485v-31.484h-10.485v-21.007h-10.514v31.491h-31.477v10.5h10.5
	v10.5h10.5v-10.5C454.934,326.796,454.912,326.796,454.912,326.796z M465.412,358.272h-10.5v-10.5h-10.5v20.999h-31.491v10.5h21.014
	v21.007h10.5v10.5h10.5v-21.007h41.976v-10.5h-31.484v-20.999H465.412z M465.412,358.272h10.514v-20.984h-10.514V358.272z
	 M381.437,358.272v-10.5h10.485v-10.485h10.5V326.78h10.5v-20.999h31.491v-21.007h-10.5v10.5h-10.5v-41.991h-10.5v-20.999h10.5
	v-31.462h-10.5v20.999h-10.5v-20.999H370.93v20.999h10.5v-10.5h10.485v20.984h10.5v31.491h10.5v10.5h-10.5v20.999h-10.5v-20.992
	H381.43v-10.5h-10.5v20.999h10.5v10.5h-10.5v31.491h10.5v-20.999h10.485v20.999H381.43v10.5h-10.5v31.477h20.984v-10.5h-10.477
	V358.272z M496.889,368.772v-10.5h-20.984v10.5H496.889z M486.389,221.829h-31.477v31.477h31.477V221.829z M402.422,358.272h21.014
	v-10.5h-10.514v-10.485h-10.5V358.272z M423.428,337.288v-10.5h-10.514v10.5H423.428z M486.389,295.297h20.999v-10.5h-20.999
	V295.297z M496.889,379.272h10.5v-10.5h-10.5V379.272z M496.889,316.296h10.5v-10.5h-10.5V316.296z M402.422,263.805h-10.5v10.5
	h10.5V263.805z"/>
</svg>
