<?xml version="1.0" encoding="utf-8"?>
<!-- Generator: Adobe Illustrator 17.0.2, SVG Export Plug-In . SVG Version: 6.00 Build 0)  -->
<!DOCTYPE svg PUBLIC "-//W3C//DTD SVG 1.1//EN" "http://www.w3.org/Graphics/SVG/1.1/DTD/svg11.dtd">
<svg version="1.1" id="Layer_1" xmlns="http://www.w3.org/2000/svg" xmlns:xlink="http://www.w3.org/1999/xlink" x="0px" y="0px"
	 width="792px" height="612px" viewBox="0 0 792 612" enable-background="new 0 0 792 612" xml:space="preserve">
<path fill="#FFFFFF" d="M396,51c-141.385,0-256,114.615-256,256s114.615,256,256,256s256-114.615,256-256S537.385,51,396,51z
	 M396,532.261c-124.96,0-226.261-101.301-226.261-226.261S271.04,79.739,396,79.739S622.261,181.04,622.261,306
	S520.96,532.261,396,532.261z"/>
<path id="paperplane" fill="#FFFFFF" d="M495.964,178.771c-1.326-0.855-2.835-1.278-4.337-1.278c-1.541,0-3.091,0.439-4.432,1.342
	L247.601,338.564c-2.468,1.637-3.826,4.52-3.506,7.475c0.303,2.947,2.22,5.495,4.976,6.581l62.486,25.006l29.382,51.417
	c1.406,2.468,4.017,3.993,6.844,4.025c0.032,0,0.056,0,0.088,0c2.803,0,5.407-1.486,6.844-3.881l16.588-27.657l77.429,30.964
	c0.95,0.383,1.949,0.567,2.963,0.567c1.358,0,2.699-0.343,3.913-1.03c2.108-1.182,3.554-3.258,3.961-5.646l39.932-239.594
	C500.021,183.65,498.631,180.504,495.964,178.771z M269.093,343.427l185.086-123.399L319.607,364.08
	c-0.711-0.423-1.342-0.982-2.124-1.294L269.093,343.427z M325.421,369.695c-0.016-0.032-0.04-0.048-0.056-0.08L476.653,207.69
	L347.679,408.645L325.421,369.695z M445.442,413.964l-68.212-27.282c-1.621-0.639-3.306-0.855-4.976-0.95l105.038-162.828
	L445.442,413.964z"/>
</svg>
