<?xml version="1.0" encoding="utf-8"?>
<!-- Generator: Adobe Illustrator 17.0.2, SVG Export Plug-In . SVG Version: 6.00 Build 0)  -->
<!DOCTYPE svg PUBLIC "-//W3C//DTD SVG 1.1//EN" "http://www.w3.org/Graphics/SVG/1.1/DTD/svg11.dtd">
<svg version="1.1" id="Layer_1" xmlns="http://www.w3.org/2000/svg" xmlns:xlink="http://www.w3.org/1999/xlink" x="0px" y="0px"
	 width="792px" height="612px" viewBox="0 0 792 612" enable-background="new 0 0 792 612" xml:space="preserve">
<path fill="#FFFFFF" d="M396,51c-141.385,0-256,114.615-256,256s114.615,256,256,256s256-114.615,256-256S537.385,51,396,51z
	 M396,532.261c-124.96,0-226.261-101.301-226.261-226.261S271.04,79.739,396,79.739S622.261,181.04,622.261,306
	S520.96,532.261,396,532.261z"/>
<path fill="#FFFFFF" d="M524.515,235.893c-9.019,3.997-18.696,6.707-28.864,7.917c10.382-6.217,18.329-16.078,22.096-27.792
	c-9.723,5.757-20.488,9.938-31.942,12.204c-9.157-9.785-22.218-15.879-36.673-15.879c-27.761,0-50.271,22.509-50.271,50.255
	c0,3.935,0.444,7.779,1.302,11.454c-41.772-2.098-78.813-22.111-103.604-52.522c-4.333,7.411-6.799,16.047-6.799,25.265
	c0,17.441,8.881,32.83,22.356,41.833c-8.238-0.276-15.986-2.542-22.77-6.309v0.628c0,24.347,17.334,44.666,40.318,49.291
	c-4.211,1.133-8.651,1.761-13.245,1.761c-3.246,0-6.385-0.322-9.463-0.919c6.401,19.967,24.959,34.499,46.948,34.912
	c-17.196,13.475-38.878,21.499-62.429,21.499c-4.058,0-8.054-0.245-11.99-0.689c22.249,14.271,48.663,22.601,77.052,22.601
	c92.456,0,143.018-76.593,143.018-143.018l-0.168-6.508C509.248,254.819,517.792,245.969,524.515,235.893z"/>
</svg>
