<?xml version="1.0" encoding="utf-8"?>
<!-- Generator: Adobe Illustrator 17.0.2, SVG Export Plug-In . SVG Version: 6.00 Build 0)  -->
<!DOCTYPE svg PUBLIC "-//W3C//DTD SVG 1.1//EN" "http://www.w3.org/Graphics/SVG/1.1/DTD/svg11.dtd">
<svg version="1.1" id="Capa_1" xmlns="http://www.w3.org/2000/svg" xmlns:xlink="http://www.w3.org/1999/xlink" x="0px" y="0px"
	 width="512px" height="512px" viewBox="0 0 512 512" enable-background="new 0 0 512 512" xml:space="preserve">
<path d="M0,256c0,141.385,114.615,256,256,256s256-114.615,256-256S397.385,0,256,0S0,114.615,0,256z M464,256
	c0,114.875-93.125,208-208,208S48,370.875,48,256S141.125,48,256,48S464,141.125,464,256z M233.373,105.372l-128,128.001
	c-12.497,12.496-12.497,32.757,0,45.254c12.497,12.497,32.758,12.497,45.255,0L224,205.255V384c0,17.673,14.327,32,32,32
	s32-14.327,32-32V205.255l73.372,73.373c12.497,12.497,32.759,12.497,45.256,0C412.876,272.379,416,264.189,416,256
	s-3.124-16.379-9.372-22.627l-128-128.001C266.131,92.876,245.869,92.876,233.373,105.372z"/>
</svg>
