<?xml version="1.0" encoding="utf-8"?>
<!-- Generator: Adobe Illustrator 17.0.2, SVG Export Plug-In . SVG Version: 6.00 Build 0)  -->
<!DOCTYPE svg PUBLIC "-//W3C//DTD SVG 1.1//EN" "http://www.w3.org/Graphics/SVG/1.1/DTD/svg11.dtd">
<svg version="1.1" id="Layer_1" xmlns="http://www.w3.org/2000/svg" xmlns:xlink="http://www.w3.org/1999/xlink" x="0px" y="0px"
	 width="792px" height="612px" viewBox="0 0 792 612" enable-background="new 0 0 792 612" xml:space="preserve">
<path fill="#FFFFFF" d="M396,51c-141.385,0-256,114.615-256,256s114.615,256,256,256s256-114.615,256-256S537.385,51,396,51z
	 M396,532.261c-124.96,0-226.261-101.301-226.261-226.261S271.04,79.739,396,79.739S622.261,181.04,622.261,306
	S520.96,532.261,396,532.261z"/>
<path fill="#FFFFFF" d="M396,174c-73.454,0-133,59.546-133,133c0,73.454,59.546,133,133,133c73.454,0,133-59.546,133-133
	C529,233.546,469.454,174,396,174z M471.253,351.333c2.377-11.209,3.878-23.106,4.366-35.467h35.314
	c-0.925,12.246-3.775,24.138-8.501,35.467H471.253z M320.747,262.667c-2.377,11.209-3.878,23.107-4.366,35.467h-35.313
	c0.924-12.245,3.774-24.138,8.5-35.467H320.747z M453.089,262.667c2.664,11.35,4.267,23.235,4.789,35.467h-53.011v-35.467H453.089z
	 M404.867,244.933v-51.908c4.043,1.176,8.047,3.15,11.978,5.921c7.365,5.193,14.412,13.191,20.377,23.133
	c4.124,6.872,7.69,14.524,10.667,22.855L404.867,244.933L404.867,244.933z M354.779,222.078
	c5.965-9.941,13.011-17.941,20.377-23.133c3.93-2.771,7.935-4.745,11.978-5.921v51.909h-43.021
	C347.09,236.603,350.656,228.951,354.779,222.078z M387.133,262.667v35.467h-53.01c0.521-12.232,2.124-24.117,4.787-35.467H387.133z
	 M289.569,351.333c-4.726-11.329-7.576-23.221-8.5-35.467h35.313c0.488,12.361,1.989,24.258,4.366,35.467H289.569z M334.123,315.867
	h53.01v35.467h-48.222C336.248,339.984,334.644,328.099,334.123,315.867z M387.133,369.067v51.909
	c-4.042-1.177-8.048-3.151-11.978-5.921c-7.366-5.193-14.412-13.192-20.377-23.133c-4.124-6.873-7.689-14.524-10.667-22.855
	L387.133,369.067L387.133,369.067z M437.221,391.922c-5.965,9.941-13.011,17.94-20.377,23.133c-3.931,2.77-7.935,4.745-11.978,5.921
	v-51.909h43.022C444.911,377.397,441.345,385.049,437.221,391.922z M404.867,351.333v-35.467h53.01
	c-0.521,12.232-2.124,24.117-4.789,35.467H404.867z M475.619,298.133c-0.488-12.36-1.989-24.258-4.366-35.467h31.178
	c4.726,11.329,7.577,23.221,8.501,35.467H475.619z M493.161,244.933h-26.572c-5.164-16.282-12.296-30.561-20.869-41.958
	c11.787,5.636,22.46,13.194,31.785,22.519C483.457,231.445,488.689,237.946,493.161,244.933z M314.494,225.494
	c9.326-9.326,20-16.883,31.785-22.519c-8.574,11.398-15.704,25.676-20.869,41.958h-26.572
	C303.311,237.946,308.543,231.445,314.494,225.494z M298.839,369.067h26.572c5.165,16.282,12.296,30.561,20.869,41.959
	c-11.786-5.636-22.46-13.194-31.785-22.52C308.543,382.555,303.311,376.054,298.839,369.067z M477.506,388.506
	c-9.326,9.326-20,16.884-31.785,22.52c8.574-11.397,15.705-25.677,20.869-41.959h26.572
	C488.689,376.054,483.457,382.555,477.506,388.506z"/>
</svg>
